<svg id="Group_1366" data-name="Group 1366" xmlns="http://www.w3.org/2000/svg" xmlns:xlink="http://www.w3.org/1999/xlink" width="48" height="45" viewBox="0 0 48 45">
  <defs>
    <clipPath id="clip-path">
      <rect id="Rectangle_596" data-name="Rectangle 596" width="48" height="45" fill="none"/>
    </clipPath>
  </defs>
  <g id="Group_1318" data-name="Group 1318" clip-path="url(#clip-path)">
    <path id="Path_303" data-name="Path 303" d="M41.982,36H27.012a3,3,0,0,0,3.03,3h5.94a3,3,0,1,1,.03,6h-24a3,3,0,1,1,0-6h5.9a3,3,0,0,0,3.03-3H6.021A6.024,6.024,0,0,1,0,30V6A6,6,0,0,1,6.024,0H41.97A6.018,6.018,0,0,1,48,6V30.03A6,6,0,0,1,41.982,36m0-30H6.012l.021,24H42.015l-.03-24Z" transform="translate(0 0)" fill="#ff8224" fill-rule="evenodd"/>
  </g>
</svg>
